<svg xmlns="http://www.w3.org/2000/svg" version="1.1" xmlns:xlink="http://www.w3.org/1999/xlink" xmlns:svgjs="http://svgjs.dev/svgjs" width="1000" height="750" viewBox="0 0 1000 750"><rect width="1000" height="750" fill="#000000"></rect><g transform="matrix(0.834,0,0,0.834,82.49457489288585,115.4193570850203)"><svg viewBox="0 0 396 247" data-background-color="#0093fb" preserveAspectRatio="xMidYMid meet" height="623" width="1000" xmlns="http://www.w3.org/2000/svg" xmlns:xlink="http://www.w3.org/1999/xlink"><g id="tight-bounds" transform="matrix(1,0,0,1,0.2399860220829737,-0.09999999999999432)"><svg viewBox="0 0 395.52 247.2" height="247.2" width="395.52"><g><svg></svg></g><g><svg viewBox="0 0 395.52 247.2" height="247.2" width="395.52"><g><g><path xmlns="http://www.w3.org/2000/svg" d="M113.889 247.2c-2.59 0-4.591-0.777-6.004-2.331-1.413-1.507-2.119-3.437-2.119-5.791l0-64.579h33.549v64.579c0 2.354-0.753 4.285-2.26 5.791-1.554 1.554-3.626 2.331-6.216 2.331zM105.766 8.475c0-2.59 0.706-4.661 2.119-6.215 1.413-1.507 3.414-2.26 6.004-2.26h16.244c2.825 0 4.944 0.636 6.357 1.907 1.413 1.318 2.237 2.331 2.472 3.037l44.108 67.757-37.999 0-5.756-8.782 0 8.782h-33.549zM256.205 185.047l0-10.548 33.549 0v64.226c0 2.354-0.753 4.355-2.26 6.003-1.554 1.648-3.508 2.472-5.863 2.472h-16.95c-2.59 0-4.52-0.706-5.792-2.119-1.318-1.413-2.213-2.354-2.684-2.825l-44.411-67.757 37.545 0zM256.205 8.475c0-2.59 0.706-4.661 2.119-6.215 1.413-1.507 3.414-2.26 6.003-2.26h16.951c2.59 0 4.661 0.753 6.216 2.26 1.507 1.554 2.26 3.626 2.26 6.215v64.226l-33.549 0z" fill="#ffffff" fill-rule="nonzero" stroke="none" stroke-width="1" stroke-linecap="butt" stroke-linejoin="miter" stroke-miterlimit="10" stroke-dasharray="" stroke-dashoffset="0" font-family="none" font-weight="none" font-size="none" text-anchor="none" style="mix-blend-mode: normal" data-fill-palette-color="tertiary"></path></g></g><g transform="matrix(1,0,0,1,2.842170943040401e-14,84.19954022988506)"><svg viewBox="0 0 395.5199999999999 78.80091954022987" height="78.80091954022987" width="395.5199999999999"><g><svg viewBox="0 0 395.5199999999999 78.80091954022987" height="78.80091954022987" width="395.5199999999999"><g><svg viewBox="0 0 395.5199999999999 78.80091954022987" height="78.80091954022987" width="395.5199999999999"><g><svg viewBox="0 0 395.5199999999999 78.80091954022987" height="78.80091954022987" width="395.5199999999999"><g id="textblocktransform"><svg viewBox="0 0 395.5199999999999 78.80091954022987" height="78.80091954022987" width="395.5199999999999" id="textblock"><g><svg viewBox="0 0 395.5199999999999 78.80091954022987" height="78.80091954022987" width="395.5199999999999"><g transform="matrix(1,0,0,1,0,0)"><svg width="395.5199999999999" viewBox="4.349999904632568 -35.900001525878906 182.6899871826172 36.400001525878906" height="78.80091954022987" data-palette-color="#ffffff"><path d="M7.9 0L5.5 0Q4.95 0 4.65-0.33 4.35-0.65 4.35-1.15L4.35-1.15 4.35-33.8Q4.35-34.35 4.65-34.68 4.95-35 5.5-35L5.5-35 7.8-35Q8.4-35 8.7-34.73 9-34.45 9.05-34.3L9.05-34.3 25.65-8.8 25.65-33.8Q25.65-34.35 25.95-34.68 26.25-35 26.8-35L26.8-35 29.2-35Q29.75-35 30.08-34.68 30.4-34.35 30.4-33.8L30.4-33.8 30.4-1.2Q30.4-0.7 30.08-0.35 29.75 0 29.25 0L29.25 0 26.85 0Q26.3 0 26.03-0.3 25.75-0.6 25.65-0.7L25.65-0.7 9.1-25.95 9.1-1.15Q9.1-0.65 8.78-0.33 8.45 0 7.9 0L7.9 0ZM45.7 0.5L45.7 0.5Q43.2 0.5 41.15-0.5 39.1-1.5 37.85-3.2 36.6-4.9 36.6-7.05L36.6-7.05Q36.6-10.5 39.4-12.55 42.2-14.6 46.7-15.25L46.7-15.25 54.15-16.3 54.15-17.75Q54.15-20.15 52.77-21.5 51.4-22.85 48.3-22.85L48.3-22.85Q46.1-22.85 44.7-21.95 43.3-21.05 42.75-19.65L42.75-19.65Q42.45-18.9 41.7-18.9L41.7-18.9 39.45-18.9Q38.9-18.9 38.62-19.23 38.35-19.55 38.35-20L38.35-20Q38.35-20.75 38.92-21.85 39.5-22.95 40.7-24 41.9-25.05 43.77-25.78 45.65-26.5 48.35-26.5L48.35-26.5Q51.35-26.5 53.4-25.73 55.45-24.95 56.62-23.65 57.8-22.35 58.32-20.7 58.85-19.05 58.85-17.35L58.85-17.35 58.85-1.15Q58.85-0.65 58.52-0.33 58.2 0 57.7 0L57.7 0 55.4 0Q54.85 0 54.55-0.33 54.25-0.65 54.25-1.15L54.25-1.15 54.25-3.3Q53.6-2.4 52.5-1.53 51.4-0.65 49.75-0.08 48.1 0.5 45.7 0.5ZM46.75-3.25L46.75-3.25Q48.8-3.25 50.5-4.13 52.2-5 53.17-6.85 54.15-8.7 54.15-11.5L54.15-11.5 54.15-12.9 48.35-12.05Q44.8-11.55 43-10.38 41.2-9.2 41.2-7.4L41.2-7.4Q41.2-6 42.02-5.08 42.85-4.15 44.12-3.7 45.4-3.25 46.75-3.25ZM69.7 0L67.2 0Q66.7 0 66.37-0.33 66.05-0.65 66.05-1.15L66.05-1.15 66.05-24.85Q66.05-25.35 66.37-25.68 66.7-26 67.2-26L67.2-26 69.55-26Q70.05-26 70.37-25.68 70.7-25.35 70.7-24.85L70.7-24.85 70.7-22.65Q72-24.35 73.97-25.43 75.95-26.5 79.05-26.5L79.05-26.5Q82.3-26.5 84.57-25.08 86.84-23.65 88.02-21.13 89.2-18.6 89.2-15.25L89.2-15.25 89.2-1.15Q89.2-0.65 88.87-0.33 88.55 0 88.05 0L88.05 0 85.55 0Q85.05 0 84.72-0.33 84.4-0.65 84.4-1.15L84.4-1.15 84.4-15Q84.4-18.5 82.7-20.48 81-22.45 77.7-22.45L77.7-22.45Q74.59-22.45 72.72-20.48 70.84-18.5 70.84-15L70.84-15 70.84-1.15Q70.84-0.65 70.52-0.33 70.2 0 69.7 0L69.7 0ZM107.54 0L105.39 0Q104.64 0 104.22-0.35 103.79-0.7 103.54-1.25L103.54-1.25 94.29-24.45Q94.19-24.7 94.19-24.95L94.19-24.95Q94.19-25.4 94.49-25.7 94.79-26 95.24-26L95.24-26 97.64-26Q98.19-26 98.49-25.7 98.79-25.4 98.89-25.15L98.89-25.15 106.49-5.45 114.09-25.15Q114.19-25.4 114.47-25.7 114.74-26 115.29-26L115.29-26 117.74-26Q118.14-26 118.47-25.7 118.79-25.4 118.79-24.95L118.79-24.95Q118.79-24.7 118.69-24.45L118.69-24.45 109.39-1.25Q109.19-0.7 108.77-0.35 108.34 0 107.54 0L107.54 0ZM131.29 0.5L131.29 0.5Q128.79 0.5 126.74-0.5 124.69-1.5 123.44-3.2 122.19-4.9 122.19-7.05L122.19-7.05Q122.19-10.5 124.99-12.55 127.79-14.6 132.29-15.25L132.29-15.25 139.74-16.3 139.74-17.75Q139.74-20.15 138.37-21.5 136.99-22.85 133.89-22.85L133.89-22.85Q131.69-22.85 130.29-21.95 128.89-21.05 128.34-19.65L128.34-19.65Q128.04-18.9 127.29-18.9L127.29-18.9 125.04-18.9Q124.49-18.9 124.22-19.23 123.94-19.55 123.94-20L123.94-20Q123.94-20.75 124.52-21.85 125.09-22.95 126.29-24 127.49-25.05 129.37-25.78 131.24-26.5 133.94-26.5L133.94-26.5Q136.94-26.5 138.99-25.73 141.04-24.95 142.22-23.65 143.39-22.35 143.92-20.7 144.44-19.05 144.44-17.35L144.44-17.35 144.44-1.15Q144.44-0.65 144.12-0.33 143.79 0 143.29 0L143.29 0 140.99 0Q140.44 0 140.14-0.33 139.84-0.65 139.84-1.15L139.84-1.15 139.84-3.3Q139.19-2.4 138.09-1.53 136.99-0.65 135.34-0.08 133.69 0.5 131.29 0.5ZM132.34-3.25L132.34-3.25Q134.39-3.25 136.09-4.13 137.79-5 138.77-6.85 139.74-8.7 139.74-11.5L139.74-11.5 139.74-12.9 133.94-12.05Q130.39-11.55 128.59-10.38 126.79-9.2 126.79-7.4L126.79-7.4Q126.79-6 127.62-5.08 128.44-4.15 129.72-3.7 130.99-3.25 132.34-3.25ZM155.29 0L152.79 0Q152.29 0 151.96-0.33 151.64-0.65 151.64-1.15L151.64-1.15 151.64-24.85Q151.64-25.35 151.96-25.68 152.29-26 152.79-26L152.79-26 155.14-26Q155.64-26 155.96-25.68 156.29-25.35 156.29-24.85L156.29-24.85 156.29-22.65Q157.59-24.35 159.56-25.43 161.54-26.5 164.64-26.5L164.64-26.5Q167.89-26.5 170.16-25.08 172.44-23.65 173.61-21.13 174.79-18.6 174.79-15.25L174.79-15.25 174.79-1.15Q174.79-0.65 174.46-0.33 174.14 0 173.64 0L173.64 0 171.14 0Q170.64 0 170.31-0.33 169.99-0.65 169.99-1.15L169.99-1.15 169.99-15Q169.99-18.5 168.29-20.48 166.59-22.45 163.29-22.45L163.29-22.45Q160.19-22.45 158.31-20.48 156.44-18.5 156.44-15L156.44-15 156.44-1.15Q156.44-0.65 156.11-0.33 155.79 0 155.29 0L155.29 0ZM185.49 0L183.09 0Q182.59 0 182.26-0.33 181.94-0.65 181.94-1.15L181.94-1.15 181.94-24.85Q181.94-25.35 182.26-25.68 182.59-26 183.09-26L183.09-26 185.49-26Q185.99-26 186.31-25.68 186.64-25.35 186.64-24.85L186.64-24.85 186.64-1.15Q186.64-0.65 186.31-0.33 185.99 0 185.49 0L185.49 0ZM185.84-30.85L182.69-30.85Q182.19-30.85 181.86-31.18 181.54-31.5 181.54-32L181.54-32 181.54-34.7Q181.54-35.2 181.86-35.55 182.19-35.9 182.69-35.9L182.69-35.9 185.84-35.9Q186.34-35.9 186.69-35.55 187.04-35.2 187.04-34.7L187.04-34.7 187.04-32Q187.04-31.5 186.69-31.18 186.34-30.85 185.84-30.85L185.84-30.85Z" opacity="1" transform="matrix(1,0,0,1,0,0)" fill="#ffffff" class="undefined-text-0" data-fill-palette-color="primary" id="text-0"></path></svg></g></svg></g></svg></g></svg></g><g></g></svg></g></svg></g></svg></g></svg></g><defs></defs></svg><rect width="395.52" height="247.2" fill="none" stroke="none" visibility="hidden"></rect></g></svg></g></svg>